<svg width="102" height="37" viewBox="0 0 102 37" fill="none" xmlns="http://www.w3.org/2000/svg">
<path d="M9.868 6.668C9.868 4.694 8.622 3.224 6.662 3.224C5.682 3.224 4.884 3.616 4.296 4.4H4.268V3.35H2.98V12.604H4.324V8.95L4.338 8.964C4.814 9.706 5.584 10.154 6.634 10.154C8.608 10.154 9.868 8.642 9.868 6.668ZM8.496 6.654C8.496 7.984 7.712 9.006 6.382 9.006C5.052 9.006 4.268 7.984 4.268 6.654C4.268 5.324 5.052 4.316 6.382 4.316C7.712 4.316 8.496 5.324 8.496 6.654ZM18.3245 6.696C18.3245 4.638 16.7845 3.224 14.8105 3.224C12.8225 3.224 11.2825 4.638 11.2825 6.696C11.2825 8.768 12.8225 10.154 14.8105 10.154C16.7845 10.154 18.3245 8.768 18.3245 6.696ZM16.9665 6.654C16.9665 7.97 16.1405 9.006 14.8105 9.006C13.4665 9.006 12.6405 7.97 12.6405 6.654C12.6405 5.352 13.4665 4.316 14.8105 4.316C16.1405 4.316 16.9665 5.352 16.9665 6.654ZM28.2221 3.35L26.6821 8.376L24.9321 3.336H23.8541L22.1041 8.376L20.5641 3.35H19.2061L21.4041 10H22.6361L24.4001 5.03L26.1501 10H27.3821L29.5801 3.35H28.2221ZM37.0465 6.402C37.0465 4.54 35.7445 3.224 33.8965 3.224C32.0485 3.224 30.5225 4.568 30.5225 6.668C30.5225 8.782 31.8805 10.154 33.8545 10.154C35.8425 10.154 36.6965 9.174 36.7805 9.104L36.2205 8.334C36.0665 8.432 35.2685 9.104 34.0225 9.104C32.7905 9.104 31.9505 8.306 31.8805 6.99H37.0045C37.0045 6.99 37.0465 6.654 37.0465 6.402ZM31.8945 6.094C31.9365 5.296 32.5245 4.19 33.8545 4.19C35.1985 4.19 35.7585 5.352 35.7725 6.094H31.8945ZM42.5573 3.336C42.5573 3.336 42.3053 3.224 41.8573 3.224C41.1433 3.224 40.5413 3.616 40.2193 4.372H40.1773L40.1913 3.35H38.8473V10H40.1913V6.682C40.1913 5.702 40.4713 5.184 40.5973 5.002C40.7373 4.82 41.1013 4.442 41.6893 4.442C42.0533 4.442 42.2913 4.526 42.4173 4.582H42.4733L42.5573 3.336ZM49.8743 6.402C49.8743 4.54 48.5723 3.224 46.7243 3.224C44.8763 3.224 43.3503 4.568 43.3503 6.668C43.3503 8.782 44.7083 10.154 46.6823 10.154C48.6703 10.154 49.5243 9.174 49.6083 9.104L49.0483 8.334C48.8943 8.432 48.0963 9.104 46.8503 9.104C45.6183 9.104 44.7783 8.306 44.7083 6.99H49.8323C49.8323 6.99 49.8743 6.654 49.8743 6.402ZM44.7223 6.094C44.7643 5.296 45.3523 4.19 46.6823 4.19C48.0263 4.19 48.5863 5.352 48.6003 6.094H44.7223ZM58.1152 0.339999H56.7852V4.386H56.7572C56.2952 3.7 55.5112 3.224 54.4332 3.224C52.4872 3.224 51.2272 4.708 51.2272 6.668C51.2272 8.642 52.4872 10.154 54.4612 10.154C55.4272 10.154 56.2532 9.748 56.7992 8.936H56.8272V10H58.1152V0.339999ZM56.8272 6.654C56.8272 7.984 56.0432 9.006 54.7132 9.006C53.3832 9.006 52.5992 7.984 52.5992 6.654C52.5992 5.324 53.3832 4.316 54.7132 4.316C56.0432 4.316 56.8272 5.324 56.8272 6.654ZM70.7091 6.668C70.7091 4.708 69.4491 3.224 67.5031 3.224C66.4531 3.224 65.6831 3.672 65.1791 4.386H65.1511V0.339999H63.8211V10H65.1091V8.95H65.1371C65.6831 9.762 66.5091 10.154 67.4751 10.154C69.4491 10.154 70.7091 8.642 70.7091 6.668ZM69.3371 6.654C69.3371 7.984 68.5531 9.006 67.2231 9.006C65.8931 9.006 65.0951 7.984 65.0951 6.654C65.0951 5.324 65.8931 4.316 67.2231 4.316C68.5531 4.316 69.3371 5.324 69.3371 6.654ZM76.9953 3.336L75.0353 8.516L73.0613 3.35L71.6613 3.336L74.3213 9.86L73.9993 10.742C73.7053 11.554 73.4113 11.526 73.1313 11.526C72.7953 11.526 72.4313 11.372 72.4313 11.372L72.1653 12.464C72.1653 12.464 72.6833 12.702 73.4253 12.702C74.1673 12.702 74.7133 12.31 75.1753 11.162L78.3813 3.35L76.9953 3.336Z" fill="white"/>
<path d="M12.9934 19L0 37H6.48448L16.1112 23.5373H17.0089L21.1953 37H27.2992L21.2587 19H12.9934Z" fill="white"/>
<path d="M18.2873 32.9347C18.2873 34.6254 16.8772 35.9933 15.1353 35.9933C13.3934 35.9933 11.9833 34.6254 11.9833 32.9347C11.9833 31.2489 13.3983 29.8761 15.1353 29.8761C16.8772 29.8761 18.2873 31.244 18.2873 32.9347Z" fill="white"/>
<path d="M28.0457 37L31.5246 19H47.7821C50.7341 19 54.2666 19.8237 54.0031 23.258C53.7397 26.6923 52.637 31.3452 52.432 32.1014C52.2271 32.8576 51.2708 37 44.9132 37H28.0457ZM34.4472 32.3567H44.5521C46.4013 32.3904 46.8892 31.2922 47.143 30.2181C47.3918 29.144 47.8358 27.1402 47.9676 25.5507C48.0993 23.9612 47.1869 23.5759 45.4206 23.5759H36.0867L34.4472 32.3567Z" fill="white"/>
<path d="M53.3737 32.2941C53.3737 32.2941 54.818 23.0701 55.6035 21.8611C56.2525 20.8689 57.7699 19 61.1463 19H74.1348C74.1348 19 79.6873 18.8748 79.0921 24.4091C78.5017 29.9435 76.9891 34.0811 76.9891 34.0811C76.9891 34.0811 76.0133 37.0048 70.9194 37.0048H57.4967C56.394 36.9615 52.7882 36.5569 53.3737 32.2941ZM60.2632 24.9149C60.2632 24.9149 59.4093 28.2866 59.1458 30.4493C58.8824 32.612 60.8487 32.5494 60.8487 32.5494H69.3434C71.7879 32.5494 72.2612 31.3885 72.4661 30.5745C72.4661 30.5745 73.4663 26.9379 73.7103 25.2328C73.9201 23.7926 72.8028 23.388 71.2609 23.388H62.5564C60.6877 23.388 60.2632 24.9149 60.2632 24.9149Z" fill="white"/>
<path d="M80.4778 19H102L101.117 23.5807H93.3736L90.8168 36.8748H85.1082L87.538 23.5807H79.6581L80.4778 19Z" fill="white"/>
</svg>